<svg width="81.3" height="70" viewBox="0 0 81.3 70" xmlns="http://www.w3.org/2000/svg"><g id="svgGroup" stroke-linecap="round" fill-rule="evenodd" font-size="9pt" stroke="#000" stroke-width="0.25mm" fill="#000" style="stroke:#000;stroke-width:0.25mm;fill:#000"><path d="M 58.9 0 L 77.2 0 L 77.2 8.8 L 59.5 8.8 A 18.27 18.27 0 0 0 55.814 9.138 Q 50.192 10.302 49.498 15.465 A 11.52 11.52 0 0 0 49.4 17 A 8.037 8.037 0 0 0 51.749 22.681 A 12.958 12.958 0 0 0 53.85 24.45 Q 57.076 26.661 61.956 28.74 A 85.358 85.358 0 0 0 65.9 30.3 A 56.775 56.775 0 0 1 68.309 31.282 Q 69.609 31.849 70.724 32.425 A 31.057 31.057 0 0 1 71.7 32.95 A 23.396 23.396 0 0 1 74.4 34.738 A 30.158 30.158 0 0 1 76.5 36.5 Q 78.9 38.7 80.1 42.15 A 20.87 20.87 0 0 1 81.036 46.112 A 28.712 28.712 0 0 1 81.3 50.1 A 20.383 20.383 0 0 1 80.636 55.393 A 17.299 17.299 0 0 1 79.2 59.05 A 18.444 18.444 0 0 1 76.463 62.95 A 15.599 15.599 0 0 1 73.8 65.25 A 28.502 28.502 0 0 1 69.085 67.87 A 24.944 24.944 0 0 1 67.05 68.65 A 24.668 24.668 0 0 1 62.377 69.735 A 21.494 21.494 0 0 1 60.3 69.9 Q 59.228 69.977 57.453 69.995 A 114.338 114.338 0 0 1 56.3 70 L 40.7 70 L 40.7 61.2 L 56 61.2 Q 62.8 61.2 67.1 58.35 Q 71.4 55.5 71.4 50 Q 71.4 47.3 70.2 45.25 A 10.297 10.297 0 0 0 67.963 42.613 A 12.89 12.89 0 0 0 66.75 41.7 Q 64.5 40.2 62.15 39.1 A 52.128 52.128 0 0 0 60.254 38.261 Q 59.197 37.817 57.995 37.357 A 97.272 97.272 0 0 0 56.5 36.8 A 48.121 48.121 0 0 1 56.075 36.656 Q 55.475 36.45 55.1 36.3 Q 39.4 30.3 39.4 16.7 A 20.711 20.711 0 0 1 39.954 11.755 A 13.262 13.262 0 0 1 44.8 4.15 A 19.16 19.16 0 0 1 51.919 0.794 Q 54.685 0.102 57.929 0.013 A 35.329 35.329 0 0 1 58.9 0 Z M 8.9 30.4 L 0 30.4 L 17.9 12.5 L 17.9 22 L 31.4 22 L 31.4 30.4 L 17.9 30.4 L 17.9 51 A 17.571 17.571 0 0 0 18.062 53.456 Q 18.243 54.737 18.627 55.806 A 9.084 9.084 0 0 0 19.05 56.8 A 7.143 7.143 0 0 0 20.515 58.813 A 6.404 6.404 0 0 0 22.4 60.05 Q 24.6 61 26.55 61.3 A 22.565 22.565 0 0 0 28.146 61.483 Q 29.588 61.6 31.4 61.6 L 31.4 70 A 48.05 48.05 0 0 1 25.406 69.652 Q 18.73 68.81 14.832 65.932 A 14.041 14.041 0 0 1 14.4 65.6 A 13.383 13.383 0 0 1 10.201 59.549 Q 8.9 55.961 8.9 51 L 8.9 30.4 Z" vector-effect="non-scaling-stroke"/></g></svg>