<svg width="390.3" height="92.8" viewBox="0 0 390.3 92.8" xmlns="http://www.w3.org/2000/svg"><g id="svgGroup" stroke-linecap="round" fill-rule="evenodd" font-size="9pt" stroke="#000" stroke-width="0.25mm" fill="#000" style="stroke:#000;stroke-width:0.25mm;fill:#000"><path d="M 255.4 92.8 L 246.4 92.8 L 246.4 46 Q 246.4 40.8 248.3 36.2 A 24.743 24.743 0 0 1 252.795 28.998 A 23.536 23.536 0 0 1 253.5 28.25 Q 256.8 24.9 261.3 22.95 Q 265.8 21 270.9 21 Q 276 21 280.45 22.95 Q 284.9 24.9 288.25 28.3 Q 291.6 31.7 293.5 36.25 A 25.006 25.006 0 0 1 295.4 45.838 A 28.372 28.372 0 0 1 295.4 46 A 25.85 25.85 0 0 1 293.933 54.747 A 24.578 24.578 0 0 1 293.55 55.75 Q 291.7 60.3 288.4 63.7 Q 285.1 67.1 280.6 69.05 A 24.029 24.029 0 0 1 271.305 70.997 A 27.516 27.516 0 0 1 270.9 71 Q 264.5 71 259 68 L 259 59 A 18.532 18.532 0 0 0 268.55 62.512 A 23.475 23.475 0 0 0 270.6 62.6 Q 274.2 62.6 277.15 61.35 A 14.698 14.698 0 0 0 281.28 58.755 A 13.78 13.78 0 0 0 282.15 57.9 A 14.883 14.883 0 0 0 285.01 53.399 A 17.317 17.317 0 0 0 285.3 52.65 A 18.695 18.695 0 0 0 286.331 47.766 A 22.297 22.297 0 0 0 286.4 46 A 20.644 20.644 0 0 0 285.949 41.613 A 17.769 17.769 0 0 0 285.3 39.35 A 16.214 16.214 0 0 0 283.369 35.568 A 14.445 14.445 0 0 0 282.2 34.1 Q 280.2 31.9 277.35 30.65 A 14.742 14.742 0 0 0 273.286 29.548 A 18.708 18.708 0 0 0 270.9 29.4 A 17.693 17.693 0 0 0 267.168 29.78 A 14.712 14.712 0 0 0 264.55 30.6 Q 261.7 31.8 259.65 34 A 14.883 14.883 0 0 0 256.79 38.501 A 17.317 17.317 0 0 0 256.5 39.25 A 18.546 18.546 0 0 0 255.513 43.696 A 22.941 22.941 0 0 0 255.4 46 L 255.4 92.8 Z M 214 0 L 232.3 0 L 232.3 8.8 L 214.6 8.8 A 18.27 18.27 0 0 0 210.914 9.138 Q 205.292 10.302 204.598 15.465 A 11.52 11.52 0 0 0 204.5 17 A 8.037 8.037 0 0 0 206.849 22.681 A 12.958 12.958 0 0 0 208.95 24.45 Q 212.176 26.661 217.056 28.74 A 85.358 85.358 0 0 0 221 30.3 A 56.775 56.775 0 0 1 223.409 31.282 Q 224.709 31.849 225.824 32.425 A 31.057 31.057 0 0 1 226.8 32.95 A 23.396 23.396 0 0 1 229.5 34.738 A 30.158 30.158 0 0 1 231.6 36.5 Q 234 38.7 235.2 42.15 A 20.87 20.87 0 0 1 236.136 46.112 A 28.712 28.712 0 0 1 236.4 50.1 A 20.383 20.383 0 0 1 235.736 55.393 A 17.299 17.299 0 0 1 234.3 59.05 A 18.444 18.444 0 0 1 231.563 62.95 A 15.599 15.599 0 0 1 228.9 65.25 A 28.502 28.502 0 0 1 224.185 67.87 A 24.944 24.944 0 0 1 222.15 68.65 A 24.668 24.668 0 0 1 217.477 69.735 A 21.494 21.494 0 0 1 215.4 69.9 Q 214.328 69.977 212.553 69.995 A 114.338 114.338 0 0 1 211.4 70 L 195.8 70 L 195.8 61.2 L 211.1 61.2 Q 217.9 61.2 222.2 58.35 Q 226.5 55.5 226.5 50 Q 226.5 47.3 225.3 45.25 A 10.297 10.297 0 0 0 223.063 42.613 A 12.89 12.89 0 0 0 221.85 41.7 Q 219.6 40.2 217.25 39.1 A 52.128 52.128 0 0 0 215.354 38.261 Q 214.297 37.817 213.095 37.357 A 97.272 97.272 0 0 0 211.6 36.8 A 48.121 48.121 0 0 1 211.175 36.656 Q 210.575 36.45 210.2 36.3 Q 194.5 30.3 194.5 16.7 A 20.711 20.711 0 0 1 195.054 11.755 A 13.262 13.262 0 0 1 199.9 4.15 A 19.16 19.16 0 0 1 207.019 0.794 Q 209.785 0.102 213.029 0.013 A 35.329 35.329 0 0 1 214 0 Z M 164.1 51.8 L 160 51.8 L 160 44.1 L 164.8 44.1 Q 170.057 44.1 172.79 42.838 A 6.523 6.523 0 0 0 174.1 42.05 A 6.233 6.233 0 0 0 176.089 39.208 Q 176.471 38.158 176.614 36.855 A 15.158 15.158 0 0 0 176.7 35.2 A 6.597 6.597 0 0 0 176.428 33.252 A 4.933 4.933 0 0 0 174.4 30.55 A 8.623 8.623 0 0 0 171.589 29.341 Q 170.45 29.064 169.123 29.012 A 15.949 15.949 0 0 0 168.5 29 A 16.176 16.176 0 0 0 163.511 29.733 A 12.887 12.887 0 0 0 157.35 34 A 18.12 18.12 0 0 0 153.348 44.493 A 23.122 23.122 0 0 0 153.3 46 A 20.529 20.529 0 0 0 153.964 51.354 A 15.304 15.304 0 0 0 157.65 58 A 14.504 14.504 0 0 0 167.265 62.526 A 19.866 19.866 0 0 0 169 62.6 A 20.962 20.962 0 0 0 173.486 62.146 Q 176.622 61.459 178.988 59.735 A 13.265 13.265 0 0 0 179.3 59.5 L 185.3 65.4 A 24.96 24.96 0 0 1 169.585 70.995 A 31.17 31.17 0 0 1 169 71 A 31.386 31.386 0 0 1 161.097 70.058 A 22.405 22.405 0 0 1 150.8 64.3 A 22.534 22.534 0 0 1 144.134 49.904 A 30.659 30.659 0 0 1 144 47 A 33.829 33.829 0 0 1 145.002 38.546 A 24.512 24.512 0 0 1 150.7 27.9 Q 157.4 20.6 169 21 A 31.801 31.801 0 0 1 175.363 21.847 Q 186 24.5 186 35.1 Q 186 51.8 164.1 51.8 Z M 80.7 22 L 80.7 70 L 63.4 70 A 59.127 59.127 0 0 1 57.948 69.767 Q 51.025 69.123 47.5 66.7 A 16.182 16.182 0 0 1 44.718 64.363 A 11.164 11.164 0 0 1 42.05 59.75 A 25.431 25.431 0 0 1 41.395 56.664 Q 41.148 55.048 41.024 53.157 A 62.279 62.279 0 0 1 40.9 49.1 L 40.9 22 L 49.7 22 L 49.7 49 A 54.251 54.251 0 0 0 49.714 50.273 Q 49.726 50.771 49.747 51.215 A 26.626 26.626 0 0 0 49.8 52.05 A 9.274 9.274 0 0 0 49.911 52.9 Q 50.076 53.842 50.446 55.073 A 29.783 29.783 0 0 0 50.5 55.25 A 10.289 10.289 0 0 0 51.146 56.873 A 7.496 7.496 0 0 0 52.2 58.45 Q 53.3 59.7 55.4 60.65 A 10.061 10.061 0 0 0 57.646 61.347 Q 58.708 61.553 59.928 61.591 A 18.142 18.142 0 0 0 60.5 61.6 L 71.9 61.6 L 71.9 22 L 80.7 22 Z M 93.7 70 L 93.7 22 L 111 22 A 59.127 59.127 0 0 1 116.452 22.233 Q 123.375 22.877 126.9 25.3 A 16.182 16.182 0 0 1 129.682 27.637 A 11.164 11.164 0 0 1 132.35 32.25 A 25.431 25.431 0 0 1 133.005 35.336 Q 133.252 36.952 133.376 38.843 A 62.279 62.279 0 0 1 133.5 42.9 L 133.5 70 L 124.7 70 L 124.7 43 A 54.251 54.251 0 0 0 124.686 41.727 Q 124.674 41.229 124.653 40.785 A 26.626 26.626 0 0 0 124.6 39.95 A 9.274 9.274 0 0 0 124.489 39.1 Q 124.324 38.158 123.954 36.927 A 29.783 29.783 0 0 0 123.9 36.75 A 10.289 10.289 0 0 0 123.254 35.127 A 7.496 7.496 0 0 0 122.2 33.55 Q 121.1 32.3 119 31.35 A 10.061 10.061 0 0 0 116.754 30.653 Q 115.692 30.447 114.472 30.409 A 18.142 18.142 0 0 0 113.9 30.4 L 102.5 30.4 L 102.5 70 L 93.7 70 Z M 8.9 30.4 L 0 30.4 L 17.9 12.5 L 17.9 22 L 31.4 22 L 31.4 30.4 L 17.9 30.4 L 17.9 51 A 17.571 17.571 0 0 0 18.062 53.456 Q 18.243 54.737 18.627 55.806 A 9.084 9.084 0 0 0 19.05 56.8 A 7.143 7.143 0 0 0 20.515 58.813 A 6.404 6.404 0 0 0 22.4 60.05 Q 24.6 61 26.55 61.3 A 22.565 22.565 0 0 0 28.146 61.483 Q 29.588 61.6 31.4 61.6 L 31.4 70 A 48.05 48.05 0 0 1 25.406 69.652 Q 18.73 68.81 14.832 65.932 A 14.041 14.041 0 0 1 14.4 65.6 A 13.383 13.383 0 0 1 10.201 59.549 Q 8.9 55.961 8.9 51 L 8.9 30.4 Z M 367.8 30.4 L 358.9 30.4 L 376.8 12.5 L 376.8 22 L 390.3 22 L 390.3 30.4 L 376.8 30.4 L 376.8 51 A 17.571 17.571 0 0 0 376.962 53.456 Q 377.143 54.737 377.527 55.806 A 9.084 9.084 0 0 0 377.95 56.8 A 7.143 7.143 0 0 0 379.415 58.813 A 6.404 6.404 0 0 0 381.3 60.05 Q 383.5 61 385.45 61.3 A 22.565 22.565 0 0 0 387.046 61.483 Q 388.487 61.6 390.3 61.6 L 390.3 70 A 48.05 48.05 0 0 1 384.306 69.652 Q 377.63 68.81 373.732 65.932 A 14.041 14.041 0 0 1 373.3 65.6 A 13.383 13.383 0 0 1 369.101 59.549 Q 367.8 55.961 367.8 51 L 367.8 30.4 Z M 328.247 21.007 A 23.143 23.143 0 0 0 311.4 28.3 A 23.648 23.648 0 0 0 305.99 36.692 A 26.406 26.406 0 0 0 304.4 46 A 29.06 29.06 0 0 0 304.402 46.324 A 25.553 25.553 0 0 0 306.25 55.75 Q 308.1 60.3 311.4 63.7 Q 314.7 67.1 319.15 69.05 A 22.385 22.385 0 0 0 322.162 70.12 A 25.133 25.133 0 0 0 328.9 71 A 27.516 27.516 0 0 0 329.305 70.997 A 24.029 24.029 0 0 0 338.6 69.05 Q 343.1 67.1 346.4 63.7 Q 349.7 60.3 351.55 55.75 A 24.578 24.578 0 0 0 351.933 54.747 A 25.85 25.85 0 0 0 353.4 46 A 28.372 28.372 0 0 0 353.4 45.838 A 25.006 25.006 0 0 0 351.5 36.25 Q 349.6 31.7 346.25 28.3 Q 342.9 24.9 338.45 22.95 Q 334 21 328.9 21 A 29.742 29.742 0 0 0 328.247 21.007 Z M 328.9 29.4 A 17.272 17.272 0 0 0 323.758 30.13 A 13.727 13.727 0 0 0 317.65 34 A 15.715 15.715 0 0 0 313.736 42.059 A 22.141 22.141 0 0 0 313.4 46 A 20.986 20.986 0 0 0 314.048 51.354 A 15.407 15.407 0 0 0 317.65 58 Q 321.9 62.6 328.9 62.6 A 17.497 17.497 0 0 0 333.958 61.905 A 13.504 13.504 0 0 0 340.2 57.95 A 16.046 16.046 0 0 0 344.121 49.588 A 22.204 22.204 0 0 0 344.4 46 A 20.732 20.732 0 0 0 343.71 40.518 A 15.668 15.668 0 0 0 340.2 34.05 Q 336 29.4 328.9 29.4 Z" vector-effect="non-scaling-stroke"/></g></svg>